<?xml version="1.0" encoding="UTF-8"?>
<svg version="1.1" xmlns="http://www.w3.org/2000/svg" width="48" height="48">
<path d="M0 0 C1.46953125 0.00773438 1.46953125 0.00773438 2.96875 0.015625 C3.9484375 0.01046875 4.928125 0.0053125 5.9375 0 C8.46875 0.265625 8.46875 0.265625 10.46875 2.265625 C10.8828125 4.8671875 10.8828125 4.8671875 11.09375 7.890625 C11.16851562 8.89351562 11.24328125 9.89640625 11.3203125 10.9296875 C11.36929688 11.70054688 11.41828125 12.47140625 11.46875 13.265625 C12.603125 13.53375 13.7375 13.801875 14.90625 14.078125 C16.081875 14.47 17.2575 14.861875 18.46875 15.265625 C19.90801894 19.58343183 19.65306523 23.74325185 19.65625 28.265625 C19.66849609 29.18085938 19.68074219 30.09609375 19.69335938 31.0390625 C19.69529297 31.91820313 19.69722656 32.79734375 19.69921875 33.703125 C19.70332764 34.50621094 19.70743652 35.30929688 19.71166992 36.13671875 C19.46875 38.265625 19.46875 38.265625 17.46875 41.265625 C14.95746462 41.67027246 12.68325322 41.87390591 10.15625 41.953125 C9.41729492 41.98510986 8.67833984 42.01709473 7.91699219 42.05004883 C5.4343692 42.14539594 2.95257047 42.20984015 0.46875 42.265625 C-0.4476123 42.28753906 -1.36397461 42.30945312 -2.30810547 42.33203125 C-5.13256752 42.39021759 -7.95632249 42.42669611 -10.78125 42.453125 C-11.67368408 42.46625732 -12.56611816 42.47938965 -13.4855957 42.49291992 C-14.33081787 42.49396729 -15.17604004 42.49501465 -16.046875 42.49609375 C-17.16497559 42.50225708 -17.16497559 42.50225708 -18.30566406 42.50854492 C-20.96643166 42.21812547 -23.09505778 41.34733508 -25.53125 40.265625 C-25.64726004 36.66172836 -25.71843408 33.05831033 -25.78125 29.453125 C-25.81476562 28.42896484 -25.84828125 27.40480469 -25.8828125 26.34960938 C-25.89570313 25.36669922 -25.90859375 24.38378906 -25.921875 23.37109375 C-25.94282227 22.46512451 -25.96376953 21.55915527 -25.98535156 20.62573242 C-25.53125 18.265625 -25.53125 18.265625 -23.63183594 16.4465332 C-21.53125 15.265625 -21.53125 15.265625 -19.53125 15.265625 C-19.53125 14.275625 -19.53125 13.285625 -19.53125 12.265625 C-11.49553571 11.06026786 -11.49553571 11.06026786 -7.53125 12.265625 C-7.33789062 11.56695312 -7.14453125 10.86828125 -6.9453125 10.1484375 C-6.68492188 9.23835937 -6.42453125 8.32828125 -6.15625 7.390625 C-5.90101562 6.48570313 -5.64578125 5.58078125 -5.3828125 4.6484375 C-4.23121161 1.42606803 -3.46494184 0.36360501 0 0 Z M-0.53125 8.265625 C-0.86125 8.925625 -1.19125 9.585625 -1.53125 10.265625 C1.10875 10.265625 3.74875 10.265625 6.46875 10.265625 C6.13875 9.605625 5.80875 8.945625 5.46875 8.265625 C3.48875 8.265625 1.50875 8.265625 -0.53125 8.265625 Z " fill="#323332" transform="translate(27.53125,2.734375)"/>
<path d="M0 0 C1.46953125 0.00773438 1.46953125 0.00773438 2.96875 0.015625 C3.9484375 0.01046875 4.928125 0.0053125 5.9375 0 C8.46875 0.265625 8.46875 0.265625 10.46875 2.265625 C10.8828125 4.8671875 10.8828125 4.8671875 11.09375 7.890625 C11.16851562 8.89351562 11.24328125 9.89640625 11.3203125 10.9296875 C11.36929688 11.70054688 11.41828125 12.47140625 11.46875 13.265625 C12.603125 13.53375 13.7375 13.801875 14.90625 14.078125 C16.081875 14.47 17.2575 14.861875 18.46875 15.265625 C19.90801894 19.58343183 19.65306523 23.74325185 19.65625 28.265625 C19.66849609 29.18085938 19.68074219 30.09609375 19.69335938 31.0390625 C19.69529297 31.91820313 19.69722656 32.79734375 19.69921875 33.703125 C19.70332764 34.50621094 19.70743652 35.30929688 19.71166992 36.13671875 C19.46875 38.265625 19.46875 38.265625 17.46875 41.265625 C14.95746462 41.67027246 12.68325322 41.87390591 10.15625 41.953125 C9.41729492 41.98510986 8.67833984 42.01709473 7.91699219 42.05004883 C5.4343692 42.14539594 2.95257047 42.20984015 0.46875 42.265625 C-0.4476123 42.28753906 -1.36397461 42.30945312 -2.30810547 42.33203125 C-5.13256752 42.39021759 -7.95632249 42.42669611 -10.78125 42.453125 C-11.67368408 42.46625732 -12.56611816 42.47938965 -13.4855957 42.49291992 C-14.33081787 42.49396729 -15.17604004 42.49501465 -16.046875 42.49609375 C-17.16497559 42.50225708 -17.16497559 42.50225708 -18.30566406 42.50854492 C-20.96643166 42.21812547 -23.09505778 41.34733508 -25.53125 40.265625 C-25.64726004 36.66172836 -25.71843408 33.05831033 -25.78125 29.453125 C-25.81476562 28.42896484 -25.84828125 27.40480469 -25.8828125 26.34960938 C-25.89570313 25.36669922 -25.90859375 24.38378906 -25.921875 23.37109375 C-25.94282227 22.46512451 -25.96376953 21.55915527 -25.98535156 20.62573242 C-25.53125 18.265625 -25.53125 18.265625 -23.63183594 16.4465332 C-21.53125 15.265625 -21.53125 15.265625 -19.53125 15.265625 C-19.53125 14.275625 -19.53125 13.285625 -19.53125 12.265625 C-11.49553571 11.06026786 -11.49553571 11.06026786 -7.53125 12.265625 C-7.33789062 11.56695312 -7.14453125 10.86828125 -6.9453125 10.1484375 C-6.68492188 9.23835937 -6.42453125 8.32828125 -6.15625 7.390625 C-5.90101562 6.48570313 -5.64578125 5.58078125 -5.3828125 4.6484375 C-4.23121161 1.42606803 -3.46494184 0.36360501 0 0 Z M-0.53125 8.265625 C-0.86125 8.925625 -1.19125 9.585625 -1.53125 10.265625 C1.10875 10.265625 3.74875 10.265625 6.46875 10.265625 C6.13875 9.605625 5.80875 8.945625 5.46875 8.265625 C3.48875 8.265625 1.50875 8.265625 -0.53125 8.265625 Z M-6.53125 14.265625 C-9.765625 14.99609375 -9.765625 14.99609375 -13.28125 15.453125 C-14.45171875 15.61167969 -15.6221875 15.77023438 -16.828125 15.93359375 C-18.16617187 16.09794922 -18.16617187 16.09794922 -19.53125 16.265625 C-18.54125 16.595625 -17.55125 16.925625 -16.53125 17.265625 C-16.86125 18.255625 -17.19125 19.245625 -17.53125 20.265625 C-18.52125 20.265625 -19.51125 20.265625 -20.53125 20.265625 C-20.53125 19.275625 -20.53125 18.285625 -20.53125 17.265625 C-21.52125 17.595625 -22.51125 17.925625 -23.53125 18.265625 C-23.72715444 21.74437257 -23.91156592 25.22363404 -24.09375 28.703125 C-24.14982422 29.69634766 -24.20589844 30.68957031 -24.26367188 31.71289062 C-24.31201172 32.65712891 -24.36035156 33.60136719 -24.41015625 34.57421875 C-24.4572876 35.44876709 -24.50441895 36.32331543 -24.55297852 37.22436523 C-24.76931957 39.26073551 -24.76931957 39.26073551 -23.53125 40.265625 C-16.81000782 40.67370042 -10.19138292 40.13908505 -3.53125 39.265625 C-3.84835938 38.70359375 -4.16546875 38.1415625 -4.4921875 37.5625 C-5.59999525 35.11366183 -5.92100399 33.18174645 -6.15625 30.515625 C-6.23101563 29.71640625 -6.30578125 28.9171875 -6.3828125 28.09375 C-6.43179687 27.49046875 -6.48078125 26.8871875 -6.53125 26.265625 C-5.87125 26.265625 -5.21125 26.265625 -4.53125 26.265625 C-4.77875 27.4825 -5.02625 28.699375 -5.28125 29.953125 C-5.73179839 33.43407422 -5.66523105 34.04848329 -3.71875 37.203125 C-1.7082765 39.29719537 -1.7082765 39.29719537 0.46875 40.265625 C3.36039334 40.17616298 6.21050542 40.03147524 9.09375 39.828125 C11.8575 39.6425 14.62125 39.456875 17.46875 39.265625 C17.46875 31.675625 17.46875 24.085625 17.46875 16.265625 C15.15875 15.275625 12.84875 14.285625 10.46875 13.265625 C9.80875 12.605625 9.14875 11.945625 8.46875 11.265625 C5.93892403 10.90758289 5.93892403 10.90758289 3.09375 10.953125 C2.13726563 10.93636719 1.18078125 10.91960938 0.1953125 10.90234375 C-2.97637551 11.32493255 -4.01541115 12.37637243 -6.53125 14.265625 Z " fill="#0C0C0C" transform="translate(27.53125,2.734375)"/>
<path d="M0 0 C2.375 0.75 2.375 0.75 4 2 C4.6875 4 4.6875 4 5 6 C5.33 6.66 5.66 7.32 6 8 C6.4200542 15.56097561 6.4200542 15.56097561 4 19 C0.2626144 21.4915904 -1.57331583 21.45793285 -6 21 C-8.875 19.4375 -8.875 19.4375 -11 17 C-12.21146937 12.47718102 -12.30055585 10.02597274 -10 6 C-10.33 5.01 -10.66 4.02 -11 3 C-7.4820167 -0.37726396 -4.75972022 -0.42497502 0 0 Z " fill="#868686" transform="translate(34,22)"/>
<path d="M0 0 C1.27875 -0.061875 2.5575 -0.12375 3.875 -0.1875 C4.95394531 -0.23970703 4.95394531 -0.23970703 6.0546875 -0.29296875 C6.69664063 -0.19628906 7.33859375 -0.09960938 8 0 C10.1519437 3.22791555 10.20086443 4.28400809 10 8 C10.66 8 11.32 8 12 8 C12 9.32 12 10.64 12 12 C13.134375 12.268125 14.26875 12.53625 15.4375 12.8125 C17.2009375 13.4003125 17.2009375 13.4003125 19 14 C20.43926894 18.31780683 20.18431523 22.47762685 20.1875 27 C20.19974609 27.91523438 20.21199219 28.83046875 20.22460938 29.7734375 C20.22750977 31.09214844 20.22750977 31.09214844 20.23046875 32.4375 C20.23457764 33.24058594 20.23868652 34.04367188 20.24291992 34.87109375 C20 37 20 37 18 40 C16.68 39.67 15.36 39.34 14 39 C15.98 38.505 15.98 38.505 18 38 C18 30.41 18 22.82 18 15 C15.69 14.34 13.38 13.68 11 13 C9.0625 11.0625 9.0625 11.0625 8 9 C8 8.01 8 7.02 8 6 C4.7 6 1.4 6 -2 6 C-2.33 7.32 -2.66 8.64 -3 10 C-3.93065133 7.39417629 -4.14917407 6.35801776 -3.0625 3.75 C-2.711875 3.1725 -2.36125 2.595 -2 2 C-1.67 2.99 -1.34 3.98 -1 5 C-0.67 3.35 -0.34 1.7 0 0 Z " fill="#070707" transform="translate(27,4)"/>
<path d="M0 0 C2.375 1.625 2.375 1.625 4 4 C4.25 7.25 4.25 7.25 4 10 C3.34 9.34 2.68 8.68 2 8 C1.01 9.485 1.01 9.485 0 11 C0.33 11.66 0.66 12.32 1 13 C-2.6725514 13.34163269 -4.64581326 13.1883972 -7.9375 11.4375 C-10 9 -10 9 -10 5.375 C-8.366355 -0.13855187 -5.31572112 -0.65090463 0 0 Z " fill="#506B75" transform="translate(34,27)"/>
<path d="M0 0 C0.95003906 -0.00773438 1.90007813 -0.01546875 2.87890625 -0.0234375 C5.85560333 0.44010922 6.50421402 1.16949847 8.4375 3.375 C11.53757201 4.57549407 11.53757201 4.57549407 14.4375 5.375 C14.1075 6.035 13.7775 6.695 13.4375 7.375 C12.65439453 7.05015625 12.65439453 7.05015625 11.85546875 6.71875 C5.66838736 4.37827788 0.03171965 3.78884714 -6.5625 4.375 C-7.5525 4.87 -7.5525 4.87 -8.5625 5.375 C-10.8954866 5.41522391 -13.22956666 5.41820247 -15.5625 5.375 C-15.5625 6.695 -15.5625 8.015 -15.5625 9.375 C-18.9644487 11.46850689 -21.61522412 11.55442163 -25.5625 11.375 C-25.8925 10.055 -26.2225 8.735 -26.5625 7.375 C-25.5725 7.375 -24.5825 7.375 -23.5625 7.375 C-23.5625 8.035 -23.5625 8.695 -23.5625 9.375 C-22.5725 9.375 -21.5825 9.375 -20.5625 9.375 C-20.2325 8.385 -19.9025 7.395 -19.5625 6.375 C-20.5525 6.045 -21.5425 5.715 -22.5625 5.375 C-21.67046875 5.26542969 -20.7784375 5.15585937 -19.859375 5.04296875 C-18.68890625 4.88441406 -17.5184375 4.72585937 -16.3125 4.5625 C-15.15234375 4.41167969 -13.9921875 4.26085937 -12.796875 4.10546875 C-7.70268918 2.95497026 -5.54514819 -0.04526652 0 0 Z " fill="#ACACAC" transform="translate(30.5625,13.625)"/>
<path d="M0 0 C0.9796875 0.00515625 1.959375 0.0103125 2.96875 0.015625 C3.9484375 0.01046875 4.928125 0.0053125 5.9375 0 C8.46875 0.265625 8.46875 0.265625 10.46875 2.265625 C10.59375 5.890625 10.59375 5.890625 10.46875 9.265625 C10.13875 9.265625 9.80875 9.265625 9.46875 9.265625 C8.80875 6.955625 8.14875 4.645625 7.46875 2.265625 C6.47875 2.760625 6.47875 2.760625 5.46875 3.265625 C3.46914988 3.305617 1.46827758 3.30909299 -0.53125 3.265625 C-0.53125 3.925625 -0.53125 4.585625 -0.53125 5.265625 C1.77875 5.265625 4.08875 5.265625 6.46875 5.265625 C6.46875 5.595625 6.46875 5.925625 6.46875 6.265625 C3.82875 6.265625 1.18875 6.265625 -1.53125 6.265625 C-1.86125 5.605625 -2.19125 4.945625 -2.53125 4.265625 C-2.53125 5.255625 -2.53125 6.245625 -2.53125 7.265625 C0.76875 7.265625 4.06875 7.265625 7.46875 7.265625 C7.79875 8.585625 8.12875 9.905625 8.46875 11.265625 C7.70949219 11.31460937 6.95023438 11.36359375 6.16796875 11.4140625 C5.17410156 11.48882812 4.18023437 11.56359375 3.15625 11.640625 C1.67705078 11.74503906 1.67705078 11.74503906 0.16796875 11.8515625 C-2.74653433 12.10427972 -2.74653433 12.10427972 -5.53125 14.265625 C-8.71875 14.390625 -8.71875 14.390625 -11.53125 14.265625 C-10.87125 13.605625 -10.21125 12.945625 -9.53125 12.265625 C-8.87125 12.265625 -8.21125 12.265625 -7.53125 12.265625 C-7.33789062 11.56695312 -7.14453125 10.86828125 -6.9453125 10.1484375 C-6.55472656 8.78332031 -6.55472656 8.78332031 -6.15625 7.390625 C-5.90101562 6.48570313 -5.64578125 5.58078125 -5.3828125 4.6484375 C-4.23121161 1.42606803 -3.46494184 0.36360501 0 0 Z M-0.53125 8.265625 C-0.86125 8.925625 -1.19125 9.585625 -1.53125 10.265625 C1.10875 10.265625 3.74875 10.265625 6.46875 10.265625 C6.13875 9.605625 5.80875 8.945625 5.46875 8.265625 C3.48875 8.265625 1.50875 8.265625 -0.53125 8.265625 Z " fill="#040404" transform="translate(27.53125,2.734375)"/>
<path d="M0 0 C1 2 1 2 0.8125 4.4375 C0.73900868 7.11326831 0.73900868 7.11326831 2.75 8.875 C4.8885301 10.14110114 4.8885301 10.14110114 7.0625 10.0625 C9.96877869 8.46873427 10.59867227 5.92451005 12 3 C12.99 2.67 13.98 2.34 15 2 C15.48192771 9.22891566 15.48192771 9.22891566 13.4375 12.5 C10.03618625 14.59311615 7.92927257 14.55147685 4 14 C1.125 12.4375 1.125 12.4375 -1 10 C-1.9375 6.4375 -1.9375 6.4375 -2 3 C-1.34 2.01 -0.68 1.02 0 0 Z " fill="#A9A9A9" transform="translate(24,29)"/>
<path d="M0 0 C1.27875 -0.061875 2.5575 -0.12375 3.875 -0.1875 C4.95394531 -0.23970703 4.95394531 -0.23970703 6.0546875 -0.29296875 C6.69664063 -0.19628906 7.33859375 -0.09960938 8 0 C10.4294516 3.6441774 10.16179575 5.71241272 10 10 C9.34 9.67 8.68 9.34 8 9 C8 8.01 8 7.02 8 6 C4.7 6 1.4 6 -2 6 C-2.33 7.32 -2.66 8.64 -3 10 C-3.93065133 7.39417629 -4.14917407 6.35801776 -3.0625 3.75 C-2.711875 3.1725 -2.36125 2.595 -2 2 C-1.67 2.99 -1.34 3.98 -1 5 C-0.67 3.35 -0.34 1.7 0 0 Z " fill="#494C4B" transform="translate(27,4)"/>
<path d="M0 0 C0.33 0.66 0.66 1.32 1 2 C2.32 2.66 3.64 3.32 5 4 C0.545 4.495 0.545 4.495 -4 5 C-4.66 6.65 -5.32 8.3 -6 10 C-7.9375 9.625 -7.9375 9.625 -10 9 C-10.66666667 7.66666667 -11.33333333 6.33333333 -12 5 C-10.68 4.67 -9.36 4.34 -8 4 C-8 3.01 -8 2.02 -8 1 C-5.07175348 0.02391783 -3.04386724 -0.08226668 0 0 Z " fill="#080808" transform="translate(16,14)"/>
<path d="M0 0 C1.77007714 -0.08114106 3.54122098 -0.13925505 5.3125 -0.1875 C6.29863281 -0.22230469 7.28476562 -0.25710938 8.30078125 -0.29296875 C11.44048815 0.04780986 12.00526574 0.68054155 14 3 C17.10007201 4.20049407 17.10007201 4.20049407 20 5 C19.67 5.66 19.34 6.32 19 7 C18.47792969 6.79503906 17.95585938 6.59007812 17.41796875 6.37890625 C11.29251368 4.13683951 5.49617989 3.35212938 -1 3 C-0.67 2.01 -0.34 1.02 0 0 Z " fill="#9E9E9E" transform="translate(25,14)"/>
<path d="M0 0 C1.65 0 3.3 0 5 0 C5.33 1.65 5.66 3.3 6 5 C0.54538831 6.38529821 -4.36718401 7.2396943 -10 7 C-10 6.67 -10 6.34 -10 6 C-6.7 5.34 -3.4 4.68 0 4 C0 2.68 0 1.36 0 0 Z " fill="#474B4B" transform="translate(15,19)"/>
<path d="M0 0 C1.77504706 3.04120692 2.21305767 5.04674654 1.9765625 8.546875 C1.925 9.39121094 1.8734375 10.23554688 1.8203125 11.10546875 C1.75585938 11.97816406 1.69140625 12.85085937 1.625 13.75 C1.56828125 14.63816406 1.5115625 15.52632812 1.453125 16.44140625 C1.31202454 18.62846332 1.1606567 20.8143069 1 23 C0.34 23 -0.32 23 -1 23 C-1.02887512 19.35418313 -1.04675585 15.70839537 -1.0625 12.0625 C-1.07087891 11.02158203 -1.07925781 9.98066406 -1.08789062 8.90820312 C-1.09272461 7.42416992 -1.09272461 7.42416992 -1.09765625 5.91015625 C-1.10289307 4.99371338 -1.10812988 4.07727051 -1.11352539 3.13305664 C-1 1 -1 1 0 0 Z " fill="#040404" transform="translate(3,20)"/>
<path d="M0 0 C2.4375 1 2.4375 1 4 2 C3.67 2.66 3.34 3.32 3 4 C2.34 3.67 1.68 3.34 1 3 C-4.5395843 2.51554304 -4.5395843 2.51554304 -9.5 4.5 C-9.995 4.995 -10.49 5.49 -11 6 C-10.6875 4.125 -10.6875 4.125 -10 2 C-6.29873141 -0.46751239 -4.37776468 -0.30721156 0 0 Z " fill="#A8A8A8" transform="translate(34,22)"/>
<path d="M0 0 C0.66 0 1.32 0 2 0 C2 1.32 2 2.64 2 4 C4.31 4.66 6.62 5.32 9 6 C8.67 6.99 8.34 7.98 8 9 C8 8.34 8 7.68 8 7 C6.329375 6.5978125 6.329375 6.5978125 4.625 6.1875 C1 5 1 5 -1 2 C-0.67 1.34 -0.34 0.68 0 0 Z " fill="#0D0D0D" transform="translate(37,12)"/>
<path d="M0 0 C3.63 0.33 7.26 0.66 11 1 C11 1.33 11 1.66 11 2 C7.37 2.33 3.74 2.66 0 3 C0 2.01 0 1.02 0 0 Z " fill="#5B5B5B" transform="translate(10,16)"/>
<path d="M0 0 C2.33944736 0.28730055 4.6739143 0.61936779 7 1 C7 1.33 7 1.66 7 2 C5.02 2 3.04 2 1 2 C1 2.66 1 3.32 1 4 C3.31 4 5.62 4 8 4 C8 4.33 8 4.66 8 5 C5.36 5 2.72 5 0 5 C-0.5625 3.0625 -0.5625 3.0625 -1 1 C-0.67 0.67 -0.34 0.34 0 0 Z " fill="#0E0F0F" transform="translate(26,4)"/>
<path d="M0 0 C1.98 0.495 1.98 0.495 4 1 C3.67 2.32 3.34 3.64 3 5 C1.68 4.67 0.36 4.34 -1 4 C-0.67 2.68 -0.34 1.36 0 0 Z " fill="#2C2C2C" transform="translate(7,19)"/>
</svg>
